{
 "cells": [
  {
   "cell_type": "code",
   "execution_count": 21,
   "metadata": {},
   "outputs": [],
   "source": [
    "val_z = \"../../output/20240807/output_video/val_z\"\n",
    "input_dirs = [\n",
    "    \"../../output/20240807/val_z/3.0/vae/5e-4/chk9/lightning_logs/version_0\",\n",
    "    \"../../output/20240807/val_z/5.0/vae/5e-4/chk9/lightning_logs/version_0\",\n",
    "    \"../../output/20240807/val_z/7.0/vae/5e-4/chk9/lightning_logs/version_0\",\n",
    "    \"../../output/20240807/val_z/3.0/vae/1e-4/chk9/lightning_logs/version_1\", \n",
    "    \"../../output/20240807/val_z/5.0/vae/1e-4/chk9/lightning_logs/version_0\",\n",
    "    \"../../output/20240807/val_z/7.0/vae/1e-4/chk9/lightning_logs/version_0\",\n",
    "    \"../../output/20240807/val_z/[3.0]/vae/1e-5/chk9/lightning_logs/version_0\",\n",
    "    \"../../output/20240807/val_z/[5.0]/vae/1e-5/chk9/lightning_logs/version_0\",\n",
    "    \"../../output/20240807/val_z/[7.0]/vae/1e-5/chk9/lightning_logs/version_1\",\n",
    "]\n",
    "output_dir = \"../../output/20240807/output_video/val_z\""
   ]
  },
  {
   "cell_type": "code",
   "execution_count": 27,
   "metadata": {},
   "outputs": [],
   "source": [
    "input_dirs = [\n",
    "    \"../../output/20240807/val_z/1.0/vae/5e-4/chk9/lightning_logs/version_0\",\n",
    "    \"../../output/20240807/val_z/3.0/vae/5e-4/chk9/lightning_logs/version_0\",\n",
    "    \"../../output/20240807/val_z/5.0/vae/5e-4/chk9/lightning_logs/version_0\",\n",
    "    \"../../output/20240807/val_z/7.0/vae/5e-4/chk9/lightning_logs/version_0\",\n",
    "    \"../../output/20240807/val_z/1.0/vae/1e-5/chk9/lightning_logs/version_0\",\n",
    "    \"../../output/20240807/val_z/3.0/vae/1e-5/chk9/lightning_logs/version_0\",\n",
    "    \"../../output/20240807/val_z/5.0/vae/1e-5/chk9/lightning_logs/version_0\",\n",
    "    \"../../output/20240807/val_z/7.0/vae/1e-5/chk9/lightning_logs/version_0\",\n",
    "]\n",
    "output_dir = \"../../output/20240807/output_video/val_z\""
   ]
  },
  {
   "cell_type": "code",
   "execution_count": 24,
   "metadata": {},
   "outputs": [],
   "source": [
    "input_dirs = [\n",
    "    \"../../output/20240807/val_unsplash20k_sunrise/[3.0]/vae/5e-4/chk9/lightning_logs/version_0\",\n",
    "    \"../../output/20240807/val_unsplash20k_sunrise/[5.0]/vae/5e-4/chk9/lightning_logs/version_0\",\n",
    "    \"../../output/20240807/val_unsplash20k_sunrise/[7.0]/vae/5e-4/chk9/lightning_logs/version_0\",\n",
    "    \"../../output/20240807/val_unsplash20k_sunrise/[3.0]/vae/1e-4/chk9/lightning_logs/version_0\", \n",
    "    \"../../output/20240807/val_unsplash20k_sunrise/[5.0]/vae/1e-4/chk9/lightning_logs/version_0\",\n",
    "    \"../../output/20240807/val_unsplash20k_sunrise/[7.0]/vae/1e-4/chk9/lightning_logs/version_0\",\n",
    "    \"../../output/20240807/val_z/[3.0]/vae/1e-5/chk9/lightning_logs/version_0\",\n",
    "    \"../../output/20240807/val_z/[5.0]/vae/1e-5/chk9/lightning_logs/version_0\",\n",
    "    \"../../output/20240807/val_unsplash20k_sunrise/7.0/vae/1e-5/chk9/lightning_logs/version_0\",\n",
    "]\n",
    "output_dir = \"../../output/20240807/output_video/sunrise\""
   ]
  },
  {
   "cell_type": "code",
   "execution_count": null,
   "metadata": {},
   "outputs": [],
   "source": [
    "input_dirs = [\n",
    "    \"../../output/20240807/val_unsplash20k_sunrise/1.0/vae/5e-4/chk9/lightning_logs/version_0\",\n",
    "    \"../../output/20240807/val_unsplash20k_sunrise/3.0/vae/5e-4/chk9/lightning_logs/version_0\",\n",
    "    \"../../output/20240807/val_unsplash20k_sunrise/5.0/vae/5e-4/chk9/lightning_logs/version_0\",\n",
    "    \"../../output/20240807/val_unsplash20k_sunrise/7.0/vae/5e-4/chk9/lightning_logs/version_0\",\n",
    "    \"../../output/20240807/val_unsplash20k_sunrise/1.0/vae/1e-5/chk9/lightning_logs/version_0\",\n",
    "    \"../../output/20240807/val_unsplash20k_sunrise/3.0/vae/1e-5/chk9/lightning_logs/version_0\",\n",
    "    \"../../output/20240807/val_unsplash20k_sunrise/5.0/vae/1e-5/chk9/lightning_logs/version_0\",\n",
    "    \"../../output/20240807/val_unsplash20k_sunrise/7.0/vae/1e-5/chk9/lightning_logs/version_0\",\n",
    "]\n",
    "output_dir = \"../../output/20240807/output_video/val_z\""
   ]
  },
  {
   "cell_type": "code",
   "execution_count": 28,
   "metadata": {},
   "outputs": [],
   "source": [
    "import os\n",
    "import shutil"
   ]
  },
  {
   "cell_type": "code",
   "execution_count": 29,
   "metadata": {},
   "outputs": [
    {
     "name": "stdout",
     "output_type": "stream",
     "text": [
      "---------------------------------\n",
      "../../output/20240807/val_z/1.0/vae/5e-4/chk9/lightning_logs/version_0/crop_image\n",
      "---------------------------------\n"
     ]
    },
    {
     "name": "stderr",
     "output_type": "stream",
     "text": [
      "ffmpeg version 4.4.2-0ubuntu0.22.04.1 Copyright (c) 2000-2021 the FFmpeg developers\n",
      "  built with gcc 11 (Ubuntu 11.2.0-19ubuntu1)\n",
      "  configuration: --prefix=/usr --extra-version=0ubuntu0.22.04.1 --toolchain=hardened --libdir=/usr/lib/x86_64-linux-gnu --incdir=/usr/include/x86_64-linux-gnu --arch=amd64 --enable-gpl --disable-stripping --enable-gnutls --enable-ladspa --enable-libaom --enable-libass --enable-libbluray --enable-libbs2b --enable-libcaca --enable-libcdio --enable-libcodec2 --enable-libdav1d --enable-libflite --enable-libfontconfig --enable-libfreetype --enable-libfribidi --enable-libgme --enable-libgsm --enable-libjack --enable-libmp3lame --enable-libmysofa --enable-libopenjpeg --enable-libopenmpt --enable-libopus --enable-libpulse --enable-librabbitmq --enable-librubberband --enable-libshine --enable-libsnappy --enable-libsoxr --enable-libspeex --enable-libsrt --enable-libssh --enable-libtheora --enable-libtwolame --enable-libvidstab --enable-libvorbis --enable-libvpx --enable-libwebp --enable-libx265 --enable-libxml2 --enable-libxvid --enable-libzimg --enable-libzmq --enable-libzvbi --enable-lv2 --enable-omx --enable-openal --enable-opencl --enable-opengl --enable-sdl2 --enable-pocketsphinx --enable-librsvg --enable-libmfx --enable-libdc1394 --enable-libdrm --enable-libiec61883 --enable-chromaprint --enable-frei0r --enable-libx264 --enable-shared\n",
      "  libavutil      56. 70.100 / 56. 70.100\n",
      "  libavcodec     58.134.100 / 58.134.100\n",
      "  libavformat    58. 76.100 / 58. 76.100\n",
      "  libavdevice    58. 13.100 / 58. 13.100\n",
      "  libavfilter     7.110.100 /  7.110.100\n",
      "  libswscale      5.  9.100 /  5.  9.100\n",
      "  libswresample   3.  9.100 /  3.  9.100\n",
      "  libpostproc    55.  9.100 / 55.  9.100\n",
      "Input #0, image2, from '../../output/20240807/val_z/1.0/vae/5e-4/chk9/lightning_logs/version_0/frame/%05d.png':\n",
      "  Duration: 00:00:02.40, start: 0.000000, bitrate: N/A\n",
      "  Stream #0:0: Video: png, rgb24(pc), 512x512, 25 fps, 25 tbr, 25 tbn, 25 tbc\n",
      "Stream mapping:\n",
      "  Stream #0:0 -> #0:0 (png (native) -> h264 (libx264))\n",
      "Press [q] to stop, [?] for help\n",
      "[libx264 @ 0x55838bbea9c0] using cpu capabilities: MMX2 SSE2Fast SSSE3 SSE4.2 AVX FMA3 BMI2 AVX2\n",
      "[libx264 @ 0x55838bbea9c0] profile High, level 2.2, 4:2:0, 8-bit\n",
      "[libx264 @ 0x55838bbea9c0] 264 - core 163 r3060 5db6aa6 - H.264/MPEG-4 AVC codec - Copyleft 2003-2021 - http://www.videolan.org/x264.html - options: cabac=1 ref=3 deblock=1:0:0 analyse=0x3:0x113 me=hex subme=7 psy=1 psy_rd=1.00:0.00 mixed_ref=1 me_range=16 chroma_me=1 trellis=1 8x8dct=1 cqm=0 deadzone=21,11 fast_pskip=1 chroma_qp_offset=-2 threads=16 lookahead_threads=2 sliced_threads=0 nr=0 decimate=1 interlaced=0 bluray_compat=0 constrained_intra=0 bframes=3 b_pyramid=2 b_adapt=1 b_bias=0 direct=1 weightb=1 open_gop=0 weightp=2 keyint=250 keyint_min=6 scenecut=40 intra_refresh=0 rc_lookahead=40 rc=crf mbtree=1 crf=12.0 qcomp=0.60 qpmin=0 qpmax=69 qpstep=4 ip_ratio=1.40 aq=1:1.00\n",
      "Output #0, mp4, to '../../output/20240807/output_video/val_z/00.mp4':\n",
      "  Metadata:\n",
      "    encoder         : Lavf58.76.100\n",
      "  Stream #0:0: Video: h264 (avc1 / 0x31637661), yuv420p(tv, progressive), 512x512, q=2-31, 6 fps, 12288 tbn\n",
      "    Metadata:\n",
      "      encoder         : Lavc58.134.100 libx264\n",
      "    Side data:\n",
      "      cpb: bitrate max/min/avg: 0/0/0 buffer size: 0 vbv_delay: N/A\n",
      "frame=   60 fps=0.0 q=-1.0 Lsize=    2629kB time=00:00:09.50 bitrate=2267.4kbits/s speed=22.4x    \n",
      "video:2628kB audio:0kB subtitle:0kB other streams:0kB global headers:0kB muxing overhead: 0.049494%\n",
      "[libx264 @ 0x55838bbea9c0] frame I:1     Avg QP: 7.85  size:189800\n",
      "[libx264 @ 0x55838bbea9c0] frame P:44    Avg QP: 8.70  size: 55831\n",
      "[libx264 @ 0x55838bbea9c0] frame B:15    Avg QP:14.89  size:  2945\n",
      "[libx264 @ 0x55838bbea9c0] consecutive B-frames: 65.0%  0.0% 15.0% 20.0%\n",
      "[libx264 @ 0x55838bbea9c0] mb I  I16..4:  0.7% 27.9% 71.4%\n",
      "[libx264 @ 0x55838bbea9c0] mb P  I16..4:  0.0%  0.1%  0.5%  P16..4: 76.6% 10.7% 10.5%  0.0%  0.0%    skip: 1.6%\n",
      "[libx264 @ 0x55838bbea9c0] mb B  I16..4:  0.0%  0.0%  0.0%  B16..8: 30.3%  2.2%  1.3%  direct: 4.2%  skip:62.0%  L0:45.5% L1:48.1% BI: 6.4%\n",
      "[libx264 @ 0x55838bbea9c0] 8x8 transform intra:26.6% inter:40.2%\n",
      "[libx264 @ 0x55838bbea9c0] coded y,uvDC,uvAC intra: 99.9% 99.9% 99.9% inter: 73.1% 44.6% 34.4%\n",
      "[libx264 @ 0x55838bbea9c0] i16 v,h,dc,p:  0% 33% 56% 11%\n",
      "[libx264 @ 0x55838bbea9c0] i8 v,h,dc,ddl,ddr,vr,hd,vl,hu: 29% 10% 12%  6%  7% 11%  6% 12%  7%\n",
      "[libx264 @ 0x55838bbea9c0] i4 v,h,dc,ddl,ddr,vr,hd,vl,hu: 28%  8% 10%  7%  8% 12%  7% 12%  9%\n",
      "[libx264 @ 0x55838bbea9c0] i8c dc,h,v,p: 51% 11% 27% 10%\n",
      "[libx264 @ 0x55838bbea9c0] Weighted P-Frames: Y:0.0% UV:0.0%\n",
      "[libx264 @ 0x55838bbea9c0] ref P L0: 78.8% 12.1%  5.6%  3.5%\n",
      "[libx264 @ 0x55838bbea9c0] ref B L0: 88.2% 11.0%  0.7%\n",
      "[libx264 @ 0x55838bbea9c0] ref B L1: 94.9%  5.1%\n",
      "[libx264 @ 0x55838bbea9c0] kb/s:2152.42\n"
     ]
    },
    {
     "name": "stdout",
     "output_type": "stream",
     "text": [
      "---------------------------------\n",
      "../../output/20240807/val_z/3.0/vae/5e-4/chk9/lightning_logs/version_0/crop_image\n",
      "---------------------------------\n"
     ]
    },
    {
     "name": "stderr",
     "output_type": "stream",
     "text": [
      "ffmpeg version 4.4.2-0ubuntu0.22.04.1 Copyright (c) 2000-2021 the FFmpeg developers\n",
      "  built with gcc 11 (Ubuntu 11.2.0-19ubuntu1)\n",
      "  configuration: --prefix=/usr --extra-version=0ubuntu0.22.04.1 --toolchain=hardened --libdir=/usr/lib/x86_64-linux-gnu --incdir=/usr/include/x86_64-linux-gnu --arch=amd64 --enable-gpl --disable-stripping --enable-gnutls --enable-ladspa --enable-libaom --enable-libass --enable-libbluray --enable-libbs2b --enable-libcaca --enable-libcdio --enable-libcodec2 --enable-libdav1d --enable-libflite --enable-libfontconfig --enable-libfreetype --enable-libfribidi --enable-libgme --enable-libgsm --enable-libjack --enable-libmp3lame --enable-libmysofa --enable-libopenjpeg --enable-libopenmpt --enable-libopus --enable-libpulse --enable-librabbitmq --enable-librubberband --enable-libshine --enable-libsnappy --enable-libsoxr --enable-libspeex --enable-libsrt --enable-libssh --enable-libtheora --enable-libtwolame --enable-libvidstab --enable-libvorbis --enable-libvpx --enable-libwebp --enable-libx265 --enable-libxml2 --enable-libxvid --enable-libzimg --enable-libzmq --enable-libzvbi --enable-lv2 --enable-omx --enable-openal --enable-opencl --enable-opengl --enable-sdl2 --enable-pocketsphinx --enable-librsvg --enable-libmfx --enable-libdc1394 --enable-libdrm --enable-libiec61883 --enable-chromaprint --enable-frei0r --enable-libx264 --enable-shared\n",
      "  libavutil      56. 70.100 / 56. 70.100\n",
      "  libavcodec     58.134.100 / 58.134.100\n",
      "  libavformat    58. 76.100 / 58. 76.100\n",
      "  libavdevice    58. 13.100 / 58. 13.100\n",
      "  libavfilter     7.110.100 /  7.110.100\n",
      "  libswscale      5.  9.100 /  5.  9.100\n",
      "  libswresample   3.  9.100 /  3.  9.100\n",
      "  libpostproc    55.  9.100 / 55.  9.100\n",
      "Input #0, image2, from '../../output/20240807/val_z/3.0/vae/5e-4/chk9/lightning_logs/version_0/frame/%05d.png':\n",
      "  Duration: 00:00:02.40, start: 0.000000, bitrate: N/A\n",
      "  Stream #0:0: Video: png, rgb24(pc), 512x512, 25 fps, 25 tbr, 25 tbn, 25 tbc\n",
      "Stream mapping:\n",
      "  Stream #0:0 -> #0:0 (png (native) -> h264 (libx264))\n",
      "Press [q] to stop, [?] for help\n",
      "[libx264 @ 0x55e30b7259c0] using cpu capabilities: MMX2 SSE2Fast SSSE3 SSE4.2 AVX FMA3 BMI2 AVX2\n",
      "[libx264 @ 0x55e30b7259c0] profile High, level 2.2, 4:2:0, 8-bit\n",
      "[libx264 @ 0x55e30b7259c0] 264 - core 163 r3060 5db6aa6 - H.264/MPEG-4 AVC codec - Copyleft 2003-2021 - http://www.videolan.org/x264.html - options: cabac=1 ref=3 deblock=1:0:0 analyse=0x3:0x113 me=hex subme=7 psy=1 psy_rd=1.00:0.00 mixed_ref=1 me_range=16 chroma_me=1 trellis=1 8x8dct=1 cqm=0 deadzone=21,11 fast_pskip=1 chroma_qp_offset=-2 threads=16 lookahead_threads=2 sliced_threads=0 nr=0 decimate=1 interlaced=0 bluray_compat=0 constrained_intra=0 bframes=3 b_pyramid=2 b_adapt=1 b_bias=0 direct=1 weightb=1 open_gop=0 weightp=2 keyint=250 keyint_min=6 scenecut=40 intra_refresh=0 rc_lookahead=40 rc=crf mbtree=1 crf=12.0 qcomp=0.60 qpmin=0 qpmax=69 qpstep=4 ip_ratio=1.40 aq=1:1.00\n",
      "Output #0, mp4, to '../../output/20240807/output_video/val_z/01.mp4':\n",
      "  Metadata:\n",
      "    encoder         : Lavf58.76.100\n",
      "  Stream #0:0: Video: h264 (avc1 / 0x31637661), yuv420p(tv, progressive), 512x512, q=2-31, 6 fps, 12288 tbn\n",
      "    Metadata:\n",
      "      encoder         : Lavc58.134.100 libx264\n",
      "    Side data:\n",
      "      cpb: bitrate max/min/avg: 0/0/0 buffer size: 0 vbv_delay: N/A\n",
      "frame=   60 fps=0.0 q=-1.0 Lsize=    3107kB time=00:00:09.50 bitrate=2679.2kbits/s speed=18.6x    \n",
      "video:3106kB audio:0kB subtitle:0kB other streams:0kB global headers:0kB muxing overhead: 0.045155%\n",
      "[libx264 @ 0x55e30b7259c0] frame I:1     Avg QP: 9.51  size:170171\n",
      "[libx264 @ 0x55e30b7259c0] frame P:41    Avg QP: 9.73  size: 62747\n",
      "[libx264 @ 0x55e30b7259c0] frame B:18    Avg QP:15.27  size: 24261\n",
      "[libx264 @ 0x55e30b7259c0] consecutive B-frames: 51.7% 20.0% 15.0% 13.3%\n",
      "[libx264 @ 0x55e30b7259c0] mb I  I16..4:  1.8% 30.0% 68.3%\n",
      "[libx264 @ 0x55e30b7259c0] mb P  I16..4:  0.1%  1.3%  2.7%  P16..4: 68.7% 13.9% 12.1%  0.0%  0.0%    skip: 1.2%\n",
      "[libx264 @ 0x55e30b7259c0] mb B  I16..4:  0.0%  0.2%  0.9%  B16..8: 30.3%  7.3%  6.3%  direct:25.6%  skip:29.3%  L0:42.7% L1:42.6% BI:14.7%\n",
      "[libx264 @ 0x55e30b7259c0] 8x8 transform intra:29.7% inter:43.2%\n",
      "[libx264 @ 0x55e30b7259c0] coded y,uvDC,uvAC intra: 98.7% 99.3% 98.9% inter: 81.1% 51.1% 34.0%\n",
      "[libx264 @ 0x55e30b7259c0] i16 v,h,dc,p: 33% 11% 28% 29%\n",
      "[libx264 @ 0x55e30b7259c0] i8 v,h,dc,ddl,ddr,vr,hd,vl,hu: 34% 13% 12%  7%  5%  6%  7%  9%  8%\n",
      "[libx264 @ 0x55e30b7259c0] i4 v,h,dc,ddl,ddr,vr,hd,vl,hu: 22% 13% 11%  7%  8%  9%  9% 11% 10%\n",
      "[libx264 @ 0x55e30b7259c0] i8c dc,h,v,p: 51% 11% 28% 11%\n",
      "[libx264 @ 0x55e30b7259c0] Weighted P-Frames: Y:7.3% UV:4.9%\n",
      "[libx264 @ 0x55e30b7259c0] ref P L0: 78.0% 14.7%  4.6%  2.3%  0.3%\n",
      "[libx264 @ 0x55e30b7259c0] ref B L0: 83.1% 16.7%  0.2%\n",
      "[libx264 @ 0x55e30b7259c0] ref B L1: 99.5%  0.5%\n",
      "[libx264 @ 0x55e30b7259c0] kb/s:2543.59\n"
     ]
    },
    {
     "name": "stdout",
     "output_type": "stream",
     "text": [
      "---------------------------------\n",
      "../../output/20240807/val_z/5.0/vae/5e-4/chk9/lightning_logs/version_0/crop_image\n",
      "---------------------------------\n"
     ]
    },
    {
     "name": "stderr",
     "output_type": "stream",
     "text": [
      "ffmpeg version 4.4.2-0ubuntu0.22.04.1 Copyright (c) 2000-2021 the FFmpeg developers\n",
      "  built with gcc 11 (Ubuntu 11.2.0-19ubuntu1)\n",
      "  configuration: --prefix=/usr --extra-version=0ubuntu0.22.04.1 --toolchain=hardened --libdir=/usr/lib/x86_64-linux-gnu --incdir=/usr/include/x86_64-linux-gnu --arch=amd64 --enable-gpl --disable-stripping --enable-gnutls --enable-ladspa --enable-libaom --enable-libass --enable-libbluray --enable-libbs2b --enable-libcaca --enable-libcdio --enable-libcodec2 --enable-libdav1d --enable-libflite --enable-libfontconfig --enable-libfreetype --enable-libfribidi --enable-libgme --enable-libgsm --enable-libjack --enable-libmp3lame --enable-libmysofa --enable-libopenjpeg --enable-libopenmpt --enable-libopus --enable-libpulse --enable-librabbitmq --enable-librubberband --enable-libshine --enable-libsnappy --enable-libsoxr --enable-libspeex --enable-libsrt --enable-libssh --enable-libtheora --enable-libtwolame --enable-libvidstab --enable-libvorbis --enable-libvpx --enable-libwebp --enable-libx265 --enable-libxml2 --enable-libxvid --enable-libzimg --enable-libzmq --enable-libzvbi --enable-lv2 --enable-omx --enable-openal --enable-opencl --enable-opengl --enable-sdl2 --enable-pocketsphinx --enable-librsvg --enable-libmfx --enable-libdc1394 --enable-libdrm --enable-libiec61883 --enable-chromaprint --enable-frei0r --enable-libx264 --enable-shared\n",
      "  libavutil      56. 70.100 / 56. 70.100\n",
      "  libavcodec     58.134.100 / 58.134.100\n",
      "  libavformat    58. 76.100 / 58. 76.100\n",
      "  libavdevice    58. 13.100 / 58. 13.100\n",
      "  libavfilter     7.110.100 /  7.110.100\n",
      "  libswscale      5.  9.100 /  5.  9.100\n",
      "  libswresample   3.  9.100 /  3.  9.100\n",
      "  libpostproc    55.  9.100 / 55.  9.100\n",
      "Input #0, image2, from '../../output/20240807/val_z/5.0/vae/5e-4/chk9/lightning_logs/version_0/frame/%05d.png':\n",
      "  Duration: 00:00:02.40, start: 0.000000, bitrate: N/A\n",
      "  Stream #0:0: Video: png, rgb24(pc), 512x512, 25 fps, 25 tbr, 25 tbn, 25 tbc\n",
      "Stream mapping:\n",
      "  Stream #0:0 -> #0:0 (png (native) -> h264 (libx264))\n",
      "Press [q] to stop, [?] for help\n",
      "[libx264 @ 0x55c1b63899c0] using cpu capabilities: MMX2 SSE2Fast SSSE3 SSE4.2 AVX FMA3 BMI2 AVX2\n",
      "[libx264 @ 0x55c1b63899c0] profile High, level 2.2, 4:2:0, 8-bit\n",
      "[libx264 @ 0x55c1b63899c0] 264 - core 163 r3060 5db6aa6 - H.264/MPEG-4 AVC codec - Copyleft 2003-2021 - http://www.videolan.org/x264.html - options: cabac=1 ref=3 deblock=1:0:0 analyse=0x3:0x113 me=hex subme=7 psy=1 psy_rd=1.00:0.00 mixed_ref=1 me_range=16 chroma_me=1 trellis=1 8x8dct=1 cqm=0 deadzone=21,11 fast_pskip=1 chroma_qp_offset=-2 threads=16 lookahead_threads=2 sliced_threads=0 nr=0 decimate=1 interlaced=0 bluray_compat=0 constrained_intra=0 bframes=3 b_pyramid=2 b_adapt=1 b_bias=0 direct=1 weightb=1 open_gop=0 weightp=2 keyint=250 keyint_min=6 scenecut=40 intra_refresh=0 rc_lookahead=40 rc=crf mbtree=1 crf=12.0 qcomp=0.60 qpmin=0 qpmax=69 qpstep=4 ip_ratio=1.40 aq=1:1.00\n",
      "Output #0, mp4, to '../../output/20240807/output_video/val_z/02.mp4':\n",
      "  Metadata:\n",
      "    encoder         : Lavf58.76.100\n",
      "  Stream #0:0: Video: h264 (avc1 / 0x31637661), yuv420p(tv, progressive), 512x512, q=2-31, 6 fps, 12288 tbn\n",
      "    Metadata:\n",
      "      encoder         : Lavc58.134.100 libx264\n",
      "    Side data:\n",
      "      cpb: bitrate max/min/avg: 0/0/0 buffer size: 0 vbv_delay: N/A\n",
      "frame=   60 fps=0.0 q=-1.0 Lsize=    4334kB time=00:00:09.50 bitrate=3737.5kbits/s speed=18.1x    \n",
      "video:4333kB audio:0kB subtitle:0kB other streams:0kB global headers:0kB muxing overhead: 0.034168%\n",
      "[libx264 @ 0x55c1b63899c0] frame I:3     Avg QP:10.50  size:158254\n",
      "[libx264 @ 0x55c1b63899c0] frame P:29    Avg QP:11.91  size: 92649\n",
      "[libx264 @ 0x55c1b63899c0] frame B:28    Avg QP:15.58  size: 45520\n",
      "[libx264 @ 0x55c1b63899c0] consecutive B-frames: 33.3%  6.7% 20.0% 40.0%\n",
      "[libx264 @ 0x55c1b63899c0] mb I  I16..4:  2.4% 42.6% 55.0%\n",
      "[libx264 @ 0x55c1b63899c0] mb P  I16..4:  0.2%  5.7%  8.6%  P16..4: 45.7% 23.3% 16.2%  0.0%  0.0%    skip: 0.2%\n",
      "[libx264 @ 0x55c1b63899c0] mb B  I16..4:  0.0%  0.6%  1.9%  B16..8: 25.5% 11.2% 11.2%  direct:40.3%  skip: 9.2%  L0:39.5% L1:34.7% BI:25.8%\n",
      "[libx264 @ 0x55c1b63899c0] 8x8 transform intra:39.0% inter:41.6%\n",
      "[libx264 @ 0x55c1b63899c0] coded y,uvDC,uvAC intra: 99.3% 99.4% 98.3% inter: 89.9% 57.8% 30.4%\n",
      "[libx264 @ 0x55c1b63899c0] i16 v,h,dc,p: 17% 16% 39% 27%\n",
      "[libx264 @ 0x55c1b63899c0] i8 v,h,dc,ddl,ddr,vr,hd,vl,hu: 37% 13% 13%  5%  5%  6%  5%  7%  9%\n",
      "[libx264 @ 0x55c1b63899c0] i4 v,h,dc,ddl,ddr,vr,hd,vl,hu: 18% 15% 10%  7%  9% 11% 10%  9% 11%\n",
      "[libx264 @ 0x55c1b63899c0] i8c dc,h,v,p: 46% 11% 35%  8%\n",
      "[libx264 @ 0x55c1b63899c0] Weighted P-Frames: Y:41.4% UV:37.9%\n",
      "[libx264 @ 0x55c1b63899c0] ref P L0: 58.6% 25.1%  9.6%  5.7%  0.9%\n",
      "[libx264 @ 0x55c1b63899c0] ref B L0: 82.2% 11.5%  6.3%\n",
      "[libx264 @ 0x55c1b63899c0] ref B L1: 96.1%  3.9%\n",
      "[libx264 @ 0x55c1b63899c0] kb/s:3548.92\n"
     ]
    },
    {
     "name": "stdout",
     "output_type": "stream",
     "text": [
      "---------------------------------\n",
      "../../output/20240807/val_z/7.0/vae/5e-4/chk9/lightning_logs/version_0/crop_image\n",
      "---------------------------------\n"
     ]
    },
    {
     "name": "stderr",
     "output_type": "stream",
     "text": [
      "ffmpeg version 4.4.2-0ubuntu0.22.04.1 Copyright (c) 2000-2021 the FFmpeg developers\n",
      "  built with gcc 11 (Ubuntu 11.2.0-19ubuntu1)\n",
      "  configuration: --prefix=/usr --extra-version=0ubuntu0.22.04.1 --toolchain=hardened --libdir=/usr/lib/x86_64-linux-gnu --incdir=/usr/include/x86_64-linux-gnu --arch=amd64 --enable-gpl --disable-stripping --enable-gnutls --enable-ladspa --enable-libaom --enable-libass --enable-libbluray --enable-libbs2b --enable-libcaca --enable-libcdio --enable-libcodec2 --enable-libdav1d --enable-libflite --enable-libfontconfig --enable-libfreetype --enable-libfribidi --enable-libgme --enable-libgsm --enable-libjack --enable-libmp3lame --enable-libmysofa --enable-libopenjpeg --enable-libopenmpt --enable-libopus --enable-libpulse --enable-librabbitmq --enable-librubberband --enable-libshine --enable-libsnappy --enable-libsoxr --enable-libspeex --enable-libsrt --enable-libssh --enable-libtheora --enable-libtwolame --enable-libvidstab --enable-libvorbis --enable-libvpx --enable-libwebp --enable-libx265 --enable-libxml2 --enable-libxvid --enable-libzimg --enable-libzmq --enable-libzvbi --enable-lv2 --enable-omx --enable-openal --enable-opencl --enable-opengl --enable-sdl2 --enable-pocketsphinx --enable-librsvg --enable-libmfx --enable-libdc1394 --enable-libdrm --enable-libiec61883 --enable-chromaprint --enable-frei0r --enable-libx264 --enable-shared\n",
      "  libavutil      56. 70.100 / 56. 70.100\n",
      "  libavcodec     58.134.100 / 58.134.100\n",
      "  libavformat    58. 76.100 / 58. 76.100\n",
      "  libavdevice    58. 13.100 / 58. 13.100\n",
      "  libavfilter     7.110.100 /  7.110.100\n",
      "  libswscale      5.  9.100 /  5.  9.100\n",
      "  libswresample   3.  9.100 /  3.  9.100\n",
      "  libpostproc    55.  9.100 / 55.  9.100\n",
      "Input #0, image2, from '../../output/20240807/val_z/7.0/vae/5e-4/chk9/lightning_logs/version_0/frame/%05d.png':\n",
      "  Duration: 00:00:02.40, start: 0.000000, bitrate: N/A\n",
      "  Stream #0:0: Video: png, rgb24(pc), 512x512, 25 fps, 25 tbr, 25 tbn, 25 tbc\n",
      "Stream mapping:\n",
      "  Stream #0:0 -> #0:0 (png (native) -> h264 (libx264))\n",
      "Press [q] to stop, [?] for help\n",
      "[libx264 @ 0x55d99c1e89c0] using cpu capabilities: MMX2 SSE2Fast SSSE3 SSE4.2 AVX FMA3 BMI2 AVX2\n",
      "[libx264 @ 0x55d99c1e89c0] profile High, level 2.2, 4:2:0, 8-bit\n",
      "[libx264 @ 0x55d99c1e89c0] 264 - core 163 r3060 5db6aa6 - H.264/MPEG-4 AVC codec - Copyleft 2003-2021 - http://www.videolan.org/x264.html - options: cabac=1 ref=3 deblock=1:0:0 analyse=0x3:0x113 me=hex subme=7 psy=1 psy_rd=1.00:0.00 mixed_ref=1 me_range=16 chroma_me=1 trellis=1 8x8dct=1 cqm=0 deadzone=21,11 fast_pskip=1 chroma_qp_offset=-2 threads=16 lookahead_threads=2 sliced_threads=0 nr=0 decimate=1 interlaced=0 bluray_compat=0 constrained_intra=0 bframes=3 b_pyramid=2 b_adapt=1 b_bias=0 direct=1 weightb=1 open_gop=0 weightp=2 keyint=250 keyint_min=6 scenecut=40 intra_refresh=0 rc_lookahead=40 rc=crf mbtree=1 crf=12.0 qcomp=0.60 qpmin=0 qpmax=69 qpstep=4 ip_ratio=1.40 aq=1:1.00\n",
      "Output #0, mp4, to '../../output/20240807/output_video/val_z/03.mp4':\n",
      "  Metadata:\n",
      "    encoder         : Lavf58.76.100\n",
      "  Stream #0:0: Video: h264 (avc1 / 0x31637661), yuv420p(tv, progressive), 512x512, q=2-31, 6 fps, 12288 tbn\n",
      "    Metadata:\n",
      "      encoder         : Lavc58.134.100 libx264\n",
      "    Side data:\n",
      "      cpb: bitrate max/min/avg: 0/0/0 buffer size: 0 vbv_delay: N/A\n",
      "frame=   60 fps=0.0 q=-1.0 Lsize=    2654kB time=00:00:09.50 bitrate=2288.2kbits/s speed=23.5x    \n",
      "video:2652kB audio:0kB subtitle:0kB other streams:0kB global headers:0kB muxing overhead: 0.057886%\n",
      "[libx264 @ 0x55d99c1e89c0] frame I:1     Avg QP: 7.10  size:161725\n",
      "[libx264 @ 0x55d99c1e89c0] frame P:20    Avg QP: 8.08  size: 75601\n",
      "[libx264 @ 0x55d99c1e89c0] frame B:39    Avg QP:12.80  size: 26699\n",
      "[libx264 @ 0x55d99c1e89c0] consecutive B-frames: 11.7%  3.3%  5.0% 80.0%\n",
      "[libx264 @ 0x55d99c1e89c0] mb I  I16..4:  3.5% 32.3% 64.2%\n",
      "[libx264 @ 0x55d99c1e89c0] mb P  I16..4:  1.0%  4.4%  8.1%  P16..4: 59.0% 13.3% 13.3%  0.0%  0.0%    skip: 0.9%\n",
      "[libx264 @ 0x55d99c1e89c0] mb B  I16..4:  0.2%  0.9%  2.3%  B16..8: 22.1%  8.2%  8.3%  direct:23.9%  skip:34.0%  L0:39.0% L1:39.9% BI:21.1%\n",
      "[libx264 @ 0x55d99c1e89c0] 8x8 transform intra:30.9% inter:43.9%\n",
      "[libx264 @ 0x55d99c1e89c0] coded y,uvDC,uvAC intra: 97.9% 98.8% 98.2% inter: 65.4% 44.7% 26.8%\n",
      "[libx264 @ 0x55d99c1e89c0] i16 v,h,dc,p: 30% 13% 25% 32%\n",
      "[libx264 @ 0x55d99c1e89c0] i8 v,h,dc,ddl,ddr,vr,hd,vl,hu: 25% 15% 20%  6%  6%  6%  8%  8%  7%\n",
      "[libx264 @ 0x55d99c1e89c0] i4 v,h,dc,ddl,ddr,vr,hd,vl,hu: 16% 13% 14%  8%  9%  8% 13% 10%  8%\n",
      "[libx264 @ 0x55d99c1e89c0] i8c dc,h,v,p: 55% 16% 21%  8%\n",
      "[libx264 @ 0x55d99c1e89c0] Weighted P-Frames: Y:5.0% UV:5.0%\n",
      "[libx264 @ 0x55d99c1e89c0] ref P L0: 67.0% 18.4%  8.3%  6.1%  0.1%\n",
      "[libx264 @ 0x55d99c1e89c0] ref B L0: 83.1% 12.3%  4.6%\n",
      "[libx264 @ 0x55d99c1e89c0] ref B L1: 96.6%  3.4%\n",
      "[libx264 @ 0x55d99c1e89c0] kb/s:2172.00\n"
     ]
    },
    {
     "name": "stdout",
     "output_type": "stream",
     "text": [
      "---------------------------------\n",
      "../../output/20240807/val_z/1.0/vae/1e-5/chk9/lightning_logs/version_0/crop_image\n",
      "---------------------------------\n"
     ]
    },
    {
     "name": "stderr",
     "output_type": "stream",
     "text": [
      "ffmpeg version 4.4.2-0ubuntu0.22.04.1 Copyright (c) 2000-2021 the FFmpeg developers\n",
      "  built with gcc 11 (Ubuntu 11.2.0-19ubuntu1)\n",
      "  configuration: --prefix=/usr --extra-version=0ubuntu0.22.04.1 --toolchain=hardened --libdir=/usr/lib/x86_64-linux-gnu --incdir=/usr/include/x86_64-linux-gnu --arch=amd64 --enable-gpl --disable-stripping --enable-gnutls --enable-ladspa --enable-libaom --enable-libass --enable-libbluray --enable-libbs2b --enable-libcaca --enable-libcdio --enable-libcodec2 --enable-libdav1d --enable-libflite --enable-libfontconfig --enable-libfreetype --enable-libfribidi --enable-libgme --enable-libgsm --enable-libjack --enable-libmp3lame --enable-libmysofa --enable-libopenjpeg --enable-libopenmpt --enable-libopus --enable-libpulse --enable-librabbitmq --enable-librubberband --enable-libshine --enable-libsnappy --enable-libsoxr --enable-libspeex --enable-libsrt --enable-libssh --enable-libtheora --enable-libtwolame --enable-libvidstab --enable-libvorbis --enable-libvpx --enable-libwebp --enable-libx265 --enable-libxml2 --enable-libxvid --enable-libzimg --enable-libzmq --enable-libzvbi --enable-lv2 --enable-omx --enable-openal --enable-opencl --enable-opengl --enable-sdl2 --enable-pocketsphinx --enable-librsvg --enable-libmfx --enable-libdc1394 --enable-libdrm --enable-libiec61883 --enable-chromaprint --enable-frei0r --enable-libx264 --enable-shared\n",
      "  libavutil      56. 70.100 / 56. 70.100\n",
      "  libavcodec     58.134.100 / 58.134.100\n",
      "  libavformat    58. 76.100 / 58. 76.100\n",
      "  libavdevice    58. 13.100 / 58. 13.100\n",
      "  libavfilter     7.110.100 /  7.110.100\n",
      "  libswscale      5.  9.100 /  5.  9.100\n",
      "  libswresample   3.  9.100 /  3.  9.100\n",
      "  libpostproc    55.  9.100 / 55.  9.100\n",
      "Input #0, image2, from '../../output/20240807/val_z/1.0/vae/1e-5/chk9/lightning_logs/version_0/frame/%05d.png':\n",
      "  Duration: 00:00:02.40, start: 0.000000, bitrate: N/A\n",
      "  Stream #0:0: Video: png, rgb24(pc), 512x512, 25 fps, 25 tbr, 25 tbn, 25 tbc\n",
      "Stream mapping:\n",
      "  Stream #0:0 -> #0:0 (png (native) -> h264 (libx264))\n",
      "Press [q] to stop, [?] for help\n",
      "[libx264 @ 0x560fd08519c0] using cpu capabilities: MMX2 SSE2Fast SSSE3 SSE4.2 AVX FMA3 BMI2 AVX2\n",
      "[libx264 @ 0x560fd08519c0] profile High, level 2.2, 4:2:0, 8-bit\n",
      "[libx264 @ 0x560fd08519c0] 264 - core 163 r3060 5db6aa6 - H.264/MPEG-4 AVC codec - Copyleft 2003-2021 - http://www.videolan.org/x264.html - options: cabac=1 ref=3 deblock=1:0:0 analyse=0x3:0x113 me=hex subme=7 psy=1 psy_rd=1.00:0.00 mixed_ref=1 me_range=16 chroma_me=1 trellis=1 8x8dct=1 cqm=0 deadzone=21,11 fast_pskip=1 chroma_qp_offset=-2 threads=16 lookahead_threads=2 sliced_threads=0 nr=0 decimate=1 interlaced=0 bluray_compat=0 constrained_intra=0 bframes=3 b_pyramid=2 b_adapt=1 b_bias=0 direct=1 weightb=1 open_gop=0 weightp=2 keyint=250 keyint_min=6 scenecut=40 intra_refresh=0 rc_lookahead=40 rc=crf mbtree=1 crf=12.0 qcomp=0.60 qpmin=0 qpmax=69 qpstep=4 ip_ratio=1.40 aq=1:1.00\n",
      "Output #0, mp4, to '../../output/20240807/output_video/val_z/04.mp4':\n",
      "  Metadata:\n",
      "    encoder         : Lavf58.76.100\n",
      "  Stream #0:0: Video: h264 (avc1 / 0x31637661), yuv420p(tv, progressive), 512x512, q=2-31, 6 fps, 12288 tbn\n",
      "    Metadata:\n",
      "      encoder         : Lavc58.134.100 libx264\n",
      "    Side data:\n",
      "      cpb: bitrate max/min/avg: 0/0/0 buffer size: 0 vbv_delay: N/A\n",
      "frame=   60 fps=0.0 q=-1.0 Lsize=     607kB time=00:00:09.50 bitrate= 523.8kbits/s speed=32.4x    \n",
      "video:606kB audio:0kB subtitle:0kB other streams:0kB global headers:0kB muxing overhead: 0.254668%\n",
      "[libx264 @ 0x560fd08519c0] frame I:1     Avg QP: 4.97  size:212994\n",
      "[libx264 @ 0x560fd08519c0] frame P:17    Avg QP: 7.12  size: 23031\n",
      "[libx264 @ 0x560fd08519c0] frame B:42    Avg QP:13.68  size:   362\n",
      "[libx264 @ 0x560fd08519c0] consecutive B-frames:  3.3% 10.0%  0.0% 86.7%\n",
      "[libx264 @ 0x560fd08519c0] mb I  I16..4:  9.2% 21.3% 69.5%\n",
      "[libx264 @ 0x560fd08519c0] mb P  I16..4:  0.0%  0.0%  0.0%  P16..4: 81.2%  2.0%  5.3%  0.0%  0.0%    skip:11.5%\n",
      "[libx264 @ 0x560fd08519c0] mb B  I16..4:  0.0%  0.0%  0.0%  B16..8: 33.2%  0.8%  0.2%  direct: 0.3%  skip:65.5%  L0:36.2% L1:62.2% BI: 1.6%\n",
      "[libx264 @ 0x560fd08519c0] 8x8 transform intra:21.3% inter:42.8%\n",
      "[libx264 @ 0x560fd08519c0] coded y,uvDC,uvAC intra: 99.8% 100.0% 100.0% inter: 22.0% 9.9% 9.7%\n",
      "[libx264 @ 0x560fd08519c0] i16 v,h,dc,p: 17% 10% 53% 20%\n",
      "[libx264 @ 0x560fd08519c0] i8 v,h,dc,ddl,ddr,vr,hd,vl,hu: 27% 11% 12%  7%  6%  9%  6% 11% 10%\n",
      "[libx264 @ 0x560fd08519c0] i4 v,h,dc,ddl,ddr,vr,hd,vl,hu: 25%  8% 11%  7%  9% 11%  7% 12%  9%\n",
      "[libx264 @ 0x560fd08519c0] i8c dc,h,v,p: 55% 12% 24% 10%\n",
      "[libx264 @ 0x560fd08519c0] Weighted P-Frames: Y:0.0% UV:0.0%\n",
      "[libx264 @ 0x560fd08519c0] ref P L0: 89.5%  0.9%  6.4%  3.3%\n",
      "[libx264 @ 0x560fd08519c0] ref B L0: 91.2%  7.4%  1.4%\n",
      "[libx264 @ 0x560fd08519c0] ref B L1: 94.7%  5.3%\n",
      "[libx264 @ 0x560fd08519c0] kb/s:495.78\n"
     ]
    },
    {
     "name": "stdout",
     "output_type": "stream",
     "text": [
      "---------------------------------\n",
      "../../output/20240807/val_z/3.0/vae/1e-5/chk9/lightning_logs/version_0/crop_image\n",
      "---------------------------------\n"
     ]
    },
    {
     "name": "stderr",
     "output_type": "stream",
     "text": [
      "ffmpeg version 4.4.2-0ubuntu0.22.04.1 Copyright (c) 2000-2021 the FFmpeg developers\n",
      "  built with gcc 11 (Ubuntu 11.2.0-19ubuntu1)\n",
      "  configuration: --prefix=/usr --extra-version=0ubuntu0.22.04.1 --toolchain=hardened --libdir=/usr/lib/x86_64-linux-gnu --incdir=/usr/include/x86_64-linux-gnu --arch=amd64 --enable-gpl --disable-stripping --enable-gnutls --enable-ladspa --enable-libaom --enable-libass --enable-libbluray --enable-libbs2b --enable-libcaca --enable-libcdio --enable-libcodec2 --enable-libdav1d --enable-libflite --enable-libfontconfig --enable-libfreetype --enable-libfribidi --enable-libgme --enable-libgsm --enable-libjack --enable-libmp3lame --enable-libmysofa --enable-libopenjpeg --enable-libopenmpt --enable-libopus --enable-libpulse --enable-librabbitmq --enable-librubberband --enable-libshine --enable-libsnappy --enable-libsoxr --enable-libspeex --enable-libsrt --enable-libssh --enable-libtheora --enable-libtwolame --enable-libvidstab --enable-libvorbis --enable-libvpx --enable-libwebp --enable-libx265 --enable-libxml2 --enable-libxvid --enable-libzimg --enable-libzmq --enable-libzvbi --enable-lv2 --enable-omx --enable-openal --enable-opencl --enable-opengl --enable-sdl2 --enable-pocketsphinx --enable-librsvg --enable-libmfx --enable-libdc1394 --enable-libdrm --enable-libiec61883 --enable-chromaprint --enable-frei0r --enable-libx264 --enable-shared\n",
      "  libavutil      56. 70.100 / 56. 70.100\n",
      "  libavcodec     58.134.100 / 58.134.100\n",
      "  libavformat    58. 76.100 / 58. 76.100\n",
      "  libavdevice    58. 13.100 / 58. 13.100\n",
      "  libavfilter     7.110.100 /  7.110.100\n",
      "  libswscale      5.  9.100 /  5.  9.100\n",
      "  libswresample   3.  9.100 /  3.  9.100\n",
      "  libpostproc    55.  9.100 / 55.  9.100\n",
      "Input #0, image2, from '../../output/20240807/val_z/3.0/vae/1e-5/chk9/lightning_logs/version_0/frame/%05d.png':\n",
      "  Duration: 00:00:02.40, start: 0.000000, bitrate: N/A\n",
      "  Stream #0:0: Video: png, rgb24(pc), 512x512, 25 fps, 25 tbr, 25 tbn, 25 tbc\n",
      "Stream mapping:\n",
      "  Stream #0:0 -> #0:0 (png (native) -> h264 (libx264))\n",
      "Press [q] to stop, [?] for help\n",
      "[libx264 @ 0x56198405e9c0] using cpu capabilities: MMX2 SSE2Fast SSSE3 SSE4.2 AVX FMA3 BMI2 AVX2\n",
      "[libx264 @ 0x56198405e9c0] profile High, level 2.2, 4:2:0, 8-bit\n",
      "[libx264 @ 0x56198405e9c0] 264 - core 163 r3060 5db6aa6 - H.264/MPEG-4 AVC codec - Copyleft 2003-2021 - http://www.videolan.org/x264.html - options: cabac=1 ref=3 deblock=1:0:0 analyse=0x3:0x113 me=hex subme=7 psy=1 psy_rd=1.00:0.00 mixed_ref=1 me_range=16 chroma_me=1 trellis=1 8x8dct=1 cqm=0 deadzone=21,11 fast_pskip=1 chroma_qp_offset=-2 threads=16 lookahead_threads=2 sliced_threads=0 nr=0 decimate=1 interlaced=0 bluray_compat=0 constrained_intra=0 bframes=3 b_pyramid=2 b_adapt=1 b_bias=0 direct=1 weightb=1 open_gop=0 weightp=2 keyint=250 keyint_min=6 scenecut=40 intra_refresh=0 rc_lookahead=40 rc=crf mbtree=1 crf=12.0 qcomp=0.60 qpmin=0 qpmax=69 qpstep=4 ip_ratio=1.40 aq=1:1.00\n",
      "Output #0, mp4, to '../../output/20240807/output_video/val_z/05.mp4':\n",
      "  Metadata:\n",
      "    encoder         : Lavf58.76.100\n",
      "  Stream #0:0: Video: h264 (avc1 / 0x31637661), yuv420p(tv, progressive), 512x512, q=2-31, 6 fps, 12288 tbn\n",
      "    Metadata:\n",
      "      encoder         : Lavc58.134.100 libx264\n",
      "    Side data:\n",
      "      cpb: bitrate max/min/avg: 0/0/0 buffer size: 0 vbv_delay: N/A\n",
      "frame=   60 fps=0.0 q=-1.0 Lsize=    1383kB time=00:00:09.50 bitrate=1192.9kbits/s speed=28.2x    \n",
      "video:1382kB audio:0kB subtitle:0kB other streams:0kB global headers:0kB muxing overhead: 0.108826%\n",
      "[libx264 @ 0x56198405e9c0] frame I:1     Avg QP: 5.55  size:192116\n",
      "[libx264 @ 0x56198405e9c0] frame P:29    Avg QP: 7.28  size: 38777\n",
      "[libx264 @ 0x56198405e9c0] frame B:30    Avg QP:14.09  size:  3259\n",
      "[libx264 @ 0x56198405e9c0] consecutive B-frames: 23.3% 26.7% 10.0% 40.0%\n",
      "[libx264 @ 0x56198405e9c0] mb I  I16..4:  1.3% 27.1% 71.6%\n",
      "[libx264 @ 0x56198405e9c0] mb P  I16..4:  0.0%  0.0%  0.1%  P16..4: 80.9%  5.6%  7.6%  0.0%  0.0%    skip: 5.8%\n",
      "[libx264 @ 0x56198405e9c0] mb B  I16..4:  0.0%  0.0%  0.0%  B16..8: 33.0%  1.9%  1.2%  direct: 2.8%  skip:61.1%  L0:43.8% L1:51.9% BI: 4.3%\n",
      "[libx264 @ 0x56198405e9c0] 8x8 transform intra:26.9% inter:42.1%\n",
      "[libx264 @ 0x56198405e9c0] coded y,uvDC,uvAC intra: 99.0% 99.5% 99.4% inter: 47.3% 23.7% 21.1%\n",
      "[libx264 @ 0x56198405e9c0] i16 v,h,dc,p: 38% 24% 29% 10%\n",
      "[libx264 @ 0x56198405e9c0] i8 v,h,dc,ddl,ddr,vr,hd,vl,hu: 17% 12% 19%  8%  8%  8%  8% 10%  9%\n",
      "[libx264 @ 0x56198405e9c0] i4 v,h,dc,ddl,ddr,vr,hd,vl,hu: 17% 12% 12%  9% 10%  9%  9% 11% 11%\n",
      "[libx264 @ 0x56198405e9c0] i8c dc,h,v,p: 69%  9% 13%  9%\n",
      "[libx264 @ 0x56198405e9c0] Weighted P-Frames: Y:0.0% UV:0.0%\n",
      "[libx264 @ 0x56198405e9c0] ref P L0: 86.3%  5.4%  5.8%  2.5%\n",
      "[libx264 @ 0x56198405e9c0] ref B L0: 88.1% 11.8%  0.1%\n",
      "[libx264 @ 0x56198405e9c0] ref B L1: 93.9%  6.1%\n",
      "[libx264 @ 0x56198405e9c0] kb/s:1131.53\n"
     ]
    },
    {
     "name": "stdout",
     "output_type": "stream",
     "text": [
      "---------------------------------\n",
      "../../output/20240807/val_z/5.0/vae/1e-5/chk9/lightning_logs/version_0/crop_image\n",
      "---------------------------------\n"
     ]
    },
    {
     "name": "stderr",
     "output_type": "stream",
     "text": [
      "ffmpeg version 4.4.2-0ubuntu0.22.04.1 Copyright (c) 2000-2021 the FFmpeg developers\n",
      "  built with gcc 11 (Ubuntu 11.2.0-19ubuntu1)\n",
      "  configuration: --prefix=/usr --extra-version=0ubuntu0.22.04.1 --toolchain=hardened --libdir=/usr/lib/x86_64-linux-gnu --incdir=/usr/include/x86_64-linux-gnu --arch=amd64 --enable-gpl --disable-stripping --enable-gnutls --enable-ladspa --enable-libaom --enable-libass --enable-libbluray --enable-libbs2b --enable-libcaca --enable-libcdio --enable-libcodec2 --enable-libdav1d --enable-libflite --enable-libfontconfig --enable-libfreetype --enable-libfribidi --enable-libgme --enable-libgsm --enable-libjack --enable-libmp3lame --enable-libmysofa --enable-libopenjpeg --enable-libopenmpt --enable-libopus --enable-libpulse --enable-librabbitmq --enable-librubberband --enable-libshine --enable-libsnappy --enable-libsoxr --enable-libspeex --enable-libsrt --enable-libssh --enable-libtheora --enable-libtwolame --enable-libvidstab --enable-libvorbis --enable-libvpx --enable-libwebp --enable-libx265 --enable-libxml2 --enable-libxvid --enable-libzimg --enable-libzmq --enable-libzvbi --enable-lv2 --enable-omx --enable-openal --enable-opencl --enable-opengl --enable-sdl2 --enable-pocketsphinx --enable-librsvg --enable-libmfx --enable-libdc1394 --enable-libdrm --enable-libiec61883 --enable-chromaprint --enable-frei0r --enable-libx264 --enable-shared\n",
      "  libavutil      56. 70.100 / 56. 70.100\n",
      "  libavcodec     58.134.100 / 58.134.100\n",
      "  libavformat    58. 76.100 / 58. 76.100\n",
      "  libavdevice    58. 13.100 / 58. 13.100\n",
      "  libavfilter     7.110.100 /  7.110.100\n",
      "  libswscale      5.  9.100 /  5.  9.100\n",
      "  libswresample   3.  9.100 /  3.  9.100\n",
      "  libpostproc    55.  9.100 / 55.  9.100\n",
      "Input #0, image2, from '../../output/20240807/val_z/5.0/vae/1e-5/chk9/lightning_logs/version_0/frame/%05d.png':\n",
      "  Duration: 00:00:02.40, start: 0.000000, bitrate: N/A\n",
      "  Stream #0:0: Video: png, rgb24(pc), 512x512, 25 fps, 25 tbr, 25 tbn, 25 tbc\n",
      "Stream mapping:\n",
      "  Stream #0:0 -> #0:0 (png (native) -> h264 (libx264))\n",
      "Press [q] to stop, [?] for help\n",
      "[libx264 @ 0x55d604bdc9c0] using cpu capabilities: MMX2 SSE2Fast SSSE3 SSE4.2 AVX FMA3 BMI2 AVX2\n",
      "[libx264 @ 0x55d604bdc9c0] profile High, level 2.2, 4:2:0, 8-bit\n",
      "[libx264 @ 0x55d604bdc9c0] 264 - core 163 r3060 5db6aa6 - H.264/MPEG-4 AVC codec - Copyleft 2003-2021 - http://www.videolan.org/x264.html - options: cabac=1 ref=3 deblock=1:0:0 analyse=0x3:0x113 me=hex subme=7 psy=1 psy_rd=1.00:0.00 mixed_ref=1 me_range=16 chroma_me=1 trellis=1 8x8dct=1 cqm=0 deadzone=21,11 fast_pskip=1 chroma_qp_offset=-2 threads=16 lookahead_threads=2 sliced_threads=0 nr=0 decimate=1 interlaced=0 bluray_compat=0 constrained_intra=0 bframes=3 b_pyramid=2 b_adapt=1 b_bias=0 direct=1 weightb=1 open_gop=0 weightp=2 keyint=250 keyint_min=6 scenecut=40 intra_refresh=0 rc_lookahead=40 rc=crf mbtree=1 crf=12.0 qcomp=0.60 qpmin=0 qpmax=69 qpstep=4 ip_ratio=1.40 aq=1:1.00\n",
      "Output #0, mp4, to '../../output/20240807/output_video/val_z/06.mp4':\n",
      "  Metadata:\n",
      "    encoder         : Lavf58.76.100\n",
      "  Stream #0:0: Video: h264 (avc1 / 0x31637661), yuv420p(tv, progressive), 512x512, q=2-31, 6 fps, 12288 tbn\n",
      "    Metadata:\n",
      "      encoder         : Lavc58.134.100 libx264\n",
      "    Side data:\n",
      "      cpb: bitrate max/min/avg: 0/0/0 buffer size: 0 vbv_delay: N/A\n",
      "frame=   60 fps=0.0 q=-1.0 Lsize=    2422kB time=00:00:09.50 bitrate=2088.7kbits/s speed=21.3x    \n",
      "video:2421kB audio:0kB subtitle:0kB other streams:0kB global headers:0kB muxing overhead: 0.063740%\n",
      "[libx264 @ 0x55d604bdc9c0] frame I:1     Avg QP: 7.36  size:166182\n",
      "[libx264 @ 0x55d604bdc9c0] frame P:24    Avg QP: 8.91  size: 60847\n",
      "[libx264 @ 0x55d604bdc9c0] frame B:35    Avg QP:14.01  size: 24332\n",
      "[libx264 @ 0x55d604bdc9c0] consecutive B-frames: 18.3% 10.0%  5.0% 66.7%\n",
      "[libx264 @ 0x55d604bdc9c0] mb I  I16..4:  1.8% 37.3% 60.9%\n",
      "[libx264 @ 0x55d604bdc9c0] mb P  I16..4:  0.3%  3.1%  6.6%  P16..4: 64.4% 10.8% 11.9%  0.0%  0.0%    skip: 2.8%\n",
      "[libx264 @ 0x55d604bdc9c0] mb B  I16..4:  0.1%  0.8%  2.2%  B16..8: 24.8%  6.4%  6.0%  direct:21.0%  skip:38.7%  L0:39.8% L1:43.4% BI:16.8%\n",
      "[libx264 @ 0x55d604bdc9c0] 8x8 transform intra:31.5% inter:45.6%\n",
      "[libx264 @ 0x55d604bdc9c0] coded y,uvDC,uvAC intra: 98.2% 97.9% 93.4% inter: 62.5% 34.7% 17.3%\n",
      "[libx264 @ 0x55d604bdc9c0] i16 v,h,dc,p: 36% 24% 30% 11%\n",
      "[libx264 @ 0x55d604bdc9c0] i8 v,h,dc,ddl,ddr,vr,hd,vl,hu: 15% 16% 18%  7%  8%  8%  8%  8% 13%\n",
      "[libx264 @ 0x55d604bdc9c0] i4 v,h,dc,ddl,ddr,vr,hd,vl,hu: 15% 14% 13%  8%  9%  9% 11%  9% 12%\n",
      "[libx264 @ 0x55d604bdc9c0] i8c dc,h,v,p: 56% 17% 18%  9%\n",
      "[libx264 @ 0x55d604bdc9c0] Weighted P-Frames: Y:4.2% UV:4.2%\n",
      "[libx264 @ 0x55d604bdc9c0] ref P L0: 70.3% 17.7%  7.2%  4.5%  0.2%\n",
      "[libx264 @ 0x55d604bdc9c0] ref B L0: 79.0% 17.5%  3.5%\n",
      "[libx264 @ 0x55d604bdc9c0] ref B L1: 93.7%  6.3%\n",
      "[libx264 @ 0x55d604bdc9c0] kb/s:1982.51\n"
     ]
    },
    {
     "name": "stdout",
     "output_type": "stream",
     "text": [
      "---------------------------------\n",
      "../../output/20240807/val_z/7.0/vae/1e-5/chk9/lightning_logs/version_0/crop_image\n",
      "---------------------------------\n"
     ]
    },
    {
     "name": "stderr",
     "output_type": "stream",
     "text": [
      "ffmpeg version 4.4.2-0ubuntu0.22.04.1 Copyright (c) 2000-2021 the FFmpeg developers\n",
      "  built with gcc 11 (Ubuntu 11.2.0-19ubuntu1)\n",
      "  configuration: --prefix=/usr --extra-version=0ubuntu0.22.04.1 --toolchain=hardened --libdir=/usr/lib/x86_64-linux-gnu --incdir=/usr/include/x86_64-linux-gnu --arch=amd64 --enable-gpl --disable-stripping --enable-gnutls --enable-ladspa --enable-libaom --enable-libass --enable-libbluray --enable-libbs2b --enable-libcaca --enable-libcdio --enable-libcodec2 --enable-libdav1d --enable-libflite --enable-libfontconfig --enable-libfreetype --enable-libfribidi --enable-libgme --enable-libgsm --enable-libjack --enable-libmp3lame --enable-libmysofa --enable-libopenjpeg --enable-libopenmpt --enable-libopus --enable-libpulse --enable-librabbitmq --enable-librubberband --enable-libshine --enable-libsnappy --enable-libsoxr --enable-libspeex --enable-libsrt --enable-libssh --enable-libtheora --enable-libtwolame --enable-libvidstab --enable-libvorbis --enable-libvpx --enable-libwebp --enable-libx265 --enable-libxml2 --enable-libxvid --enable-libzimg --enable-libzmq --enable-libzvbi --enable-lv2 --enable-omx --enable-openal --enable-opencl --enable-opengl --enable-sdl2 --enable-pocketsphinx --enable-librsvg --enable-libmfx --enable-libdc1394 --enable-libdrm --enable-libiec61883 --enable-chromaprint --enable-frei0r --enable-libx264 --enable-shared\n",
      "  libavutil      56. 70.100 / 56. 70.100\n",
      "  libavcodec     58.134.100 / 58.134.100\n",
      "  libavformat    58. 76.100 / 58. 76.100\n",
      "  libavdevice    58. 13.100 / 58. 13.100\n",
      "  libavfilter     7.110.100 /  7.110.100\n",
      "  libswscale      5.  9.100 /  5.  9.100\n",
      "  libswresample   3.  9.100 /  3.  9.100\n",
      "  libpostproc    55.  9.100 / 55.  9.100\n",
      "Input #0, image2, from '../../output/20240807/val_z/7.0/vae/1e-5/chk9/lightning_logs/version_0/frame/%05d.png':\n",
      "  Duration: 00:00:02.40, start: 0.000000, bitrate: N/A\n",
      "  Stream #0:0: Video: png, rgb24(pc), 512x512, 25 fps, 25 tbr, 25 tbn, 25 tbc\n",
      "Stream mapping:\n",
      "  Stream #0:0 -> #0:0 (png (native) -> h264 (libx264))\n",
      "Press [q] to stop, [?] for help\n",
      "[libx264 @ 0x559583be29c0] using cpu capabilities: MMX2 SSE2Fast SSSE3 SSE4.2 AVX FMA3 BMI2 AVX2\n",
      "[libx264 @ 0x559583be29c0] profile High, level 2.2, 4:2:0, 8-bit\n",
      "[libx264 @ 0x559583be29c0] 264 - core 163 r3060 5db6aa6 - H.264/MPEG-4 AVC codec - Copyleft 2003-2021 - http://www.videolan.org/x264.html - options: cabac=1 ref=3 deblock=1:0:0 analyse=0x3:0x113 me=hex subme=7 psy=1 psy_rd=1.00:0.00 mixed_ref=1 me_range=16 chroma_me=1 trellis=1 8x8dct=1 cqm=0 deadzone=21,11 fast_pskip=1 chroma_qp_offset=-2 threads=16 lookahead_threads=2 sliced_threads=0 nr=0 decimate=1 interlaced=0 bluray_compat=0 constrained_intra=0 bframes=3 b_pyramid=2 b_adapt=1 b_bias=0 direct=1 weightb=1 open_gop=0 weightp=2 keyint=250 keyint_min=6 scenecut=40 intra_refresh=0 rc_lookahead=40 rc=crf mbtree=1 crf=12.0 qcomp=0.60 qpmin=0 qpmax=69 qpstep=4 ip_ratio=1.40 aq=1:1.00\n",
      "Output #0, mp4, to '../../output/20240807/output_video/val_z/07.mp4':\n",
      "  Metadata:\n",
      "    encoder         : Lavf58.76.100\n",
      "  Stream #0:0: Video: h264 (avc1 / 0x31637661), yuv420p(tv, progressive), 512x512, q=2-31, 6 fps, 12288 tbn\n",
      "    Metadata:\n",
      "      encoder         : Lavc58.134.100 libx264\n",
      "    Side data:\n",
      "      cpb: bitrate max/min/avg: 0/0/0 buffer size: 0 vbv_delay: N/A\n",
      "frame=   60 fps=0.0 q=-1.0 Lsize=    3066kB time=00:00:09.50 bitrate=2643.8kbits/s speed=20.2x    \n",
      "video:3064kB audio:0kB subtitle:0kB other streams:0kB global headers:0kB muxing overhead: 0.051371%\n",
      "[libx264 @ 0x559583be29c0] frame I:1     Avg QP: 8.06  size:148595\n",
      "[libx264 @ 0x559583be29c0] frame P:17    Avg QP: 8.80  size: 85854\n",
      "[libx264 @ 0x559583be29c0] frame B:42    Avg QP:12.77  size: 36408\n",
      "[libx264 @ 0x559583be29c0] consecutive B-frames:  3.3%  6.7% 10.0% 80.0%\n",
      "[libx264 @ 0x559583be29c0] mb I  I16..4:  2.1% 35.4% 62.6%\n",
      "[libx264 @ 0x559583be29c0] mb P  I16..4:  1.1%  6.8% 14.7%  P16..4: 48.6% 15.2% 13.5%  0.0%  0.0%    skip: 0.1%\n",
      "[libx264 @ 0x559583be29c0] mb B  I16..4:  0.3%  1.4%  3.5%  B16..8: 21.3%  9.7%  8.3%  direct:32.6%  skip:23.1%  L0:51.1% L1:29.3% BI:19.6%\n",
      "[libx264 @ 0x559583be29c0] 8x8 transform intra:30.0% inter:45.8%\n",
      "[libx264 @ 0x559583be29c0] coded y,uvDC,uvAC intra: 97.8% 99.3% 98.7% inter: 73.7% 52.0% 22.2%\n",
      "[libx264 @ 0x559583be29c0] i16 v,h,dc,p: 40% 20% 29% 11%\n",
      "[libx264 @ 0x559583be29c0] i8 v,h,dc,ddl,ddr,vr,hd,vl,hu: 20% 14% 19%  7%  8%  7%  7%  9%  9%\n",
      "[libx264 @ 0x559583be29c0] i4 v,h,dc,ddl,ddr,vr,hd,vl,hu: 16% 13% 12%  8% 11% 11%  9% 10% 10%\n",
      "[libx264 @ 0x559583be29c0] i8c dc,h,v,p: 51% 18% 20% 10%\n",
      "[libx264 @ 0x559583be29c0] Weighted P-Frames: Y:35.3% UV:35.3%\n",
      "[libx264 @ 0x559583be29c0] ref P L0: 58.8% 25.9%  6.4%  6.9%  2.1%\n",
      "[libx264 @ 0x559583be29c0] ref B L0: 76.8% 16.2%  6.9%\n",
      "[libx264 @ 0x559583be29c0] ref B L1: 90.9%  9.1%\n",
      "[libx264 @ 0x559583be29c0] kb/s:2509.79\n"
     ]
    }
   ],
   "source": [
    "for idx, source_dir in enumerate(input_dirs):\n",
    "    frame_dir = source_dir + \"/\" + f\"frame\"\n",
    "    crop_dir = source_dir + \"/\" +f\"crop_image\"\n",
    "    print(\"---------------------------------\")\n",
    "    print(f\"{crop_dir}\")\n",
    "    print(\"---------------------------------\")\n",
    "    os.makedirs(frame_dir, exist_ok=True)\n",
    "    for i in range(60):\n",
    "        shutil.copy(f\"{crop_dir}/{i:05d}_{i:05d}.png\", f\"{frame_dir}/{i:05d}.png\")\n",
    "    if os.path.exists(f\"{output_dir}/{idx:02d}.mp4\"):\n",
    "        os.remove(f\"{output_dir}/{idx:02d}.mp4\")\n",
    "    os.system(f'ffmpeg -r 6 -i \"{frame_dir}/%05d.png\" -c:v libx264 -crf 12 -pix_fmt yuv420p {output_dir}/{idx:02d}.mp4')"
   ]
  },
  {
   "cell_type": "code",
   "execution_count": null,
   "metadata": {},
   "outputs": [],
   "source": []
  }
 ],
 "metadata": {
  "kernelspec": {
   "display_name": "venv_pytorch2.0",
   "language": "python",
   "name": "python3"
  },
  "language_info": {
   "codemirror_mode": {
    "name": "ipython",
    "version": 3
   },
   "file_extension": ".py",
   "mimetype": "text/x-python",
   "name": "python",
   "nbconvert_exporter": "python",
   "pygments_lexer": "ipython3",
   "version": "3.11.9"
  }
 },
 "nbformat": 4,
 "nbformat_minor": 2
}
